<svg width="286" height="48" viewBox="0 0 286 48" fill="none" xmlns="http://www.w3.org/2000/svg">
<circle cx="4" cy="17.4" r="4" fill="#DD0426"/>
<circle cx="4" cy="31.4" r="4" fill="#5AB1BB"/>
<path d="M16.76 13.56H22.31C24.71 13.56 26.41 13.81 27.41 14.31C28.41 14.79 29.05 15.7 29.33 17.04C29.61 18.36 29.75 20.64 29.75 23.88C29.75 27.12 29.61 29.41 29.33 30.75C29.05 32.07 28.41 32.98 27.41 33.48C26.41 33.96 24.71 34.2 22.31 34.2H16.76V13.56ZM21.98 32.61C24.04 32.61 25.44 32.47 26.18 32.19C26.92 31.89 27.4 31.19 27.62 30.09C27.86 28.99 27.98 26.92 27.98 23.88C27.98 20.88 27.86 18.82 27.62 17.7C27.38 16.58 26.89 15.88 26.15 15.6C25.41 15.3 24.02 15.15 21.98 15.15H18.5V32.61H21.98ZM45.9111 34.2L42.8811 25.65C42.6811 25.67 42.4211 25.68 42.1011 25.68H36.3711V34.2H34.6311V13.56H42.4011C43.9011 13.56 45.0211 13.83 45.7611 14.37C46.5211 14.89 47.0011 15.57 47.2011 16.41C47.4211 17.23 47.5311 18.3 47.5311 19.62C47.5311 21.14 47.3411 22.39 46.9611 23.37C46.6011 24.33 45.8111 24.99 44.5911 25.35L47.8011 34.2H45.9111ZM41.8311 24.12C42.9911 24.12 43.8511 23.95 44.4111 23.61C44.9911 23.27 45.3611 22.79 45.5211 22.17C45.6811 21.55 45.7611 20.7 45.7611 19.62C45.7611 18.52 45.6811 17.67 45.5211 17.07C45.3811 16.47 45.0411 16 44.5011 15.66C43.9811 15.32 43.1611 15.15 42.0411 15.15H36.3711V24.12H41.8311ZM58.8964 34.44C56.5764 34.44 54.9364 34.19 53.9764 33.69C53.0164 33.19 52.3964 32.26 52.1164 30.9C51.8364 29.52 51.6964 27.18 51.6964 23.88C51.6964 20.58 51.8364 18.25 52.1164 16.89C52.3964 15.51 53.0164 14.57 53.9764 14.07C54.9364 13.57 56.5764 13.32 58.8964 13.32C61.2364 13.32 62.8864 13.57 63.8464 14.07C64.8064 14.57 65.4264 15.51 65.7064 16.89C65.9864 18.25 66.1264 20.58 66.1264 23.88C66.1264 27.18 65.9864 29.52 65.7064 30.9C65.4264 32.26 64.8064 33.19 63.8464 33.69C62.8864 34.19 61.2364 34.44 58.8964 34.44ZM58.8964 32.85C60.7364 32.85 61.9964 32.7 62.6764 32.4C63.3564 32.1 63.8064 31.37 64.0264 30.21C64.2464 29.05 64.3564 26.94 64.3564 23.88C64.3564 20.82 64.2464 18.71 64.0264 17.55C63.8064 16.39 63.3564 15.66 62.6764 15.36C61.9964 15.06 60.7364 14.91 58.8964 14.91C57.0764 14.91 55.8264 15.06 55.1464 15.36C54.4664 15.66 54.0164 16.39 53.7964 17.55C53.5764 18.71 53.4664 20.82 53.4664 23.88C53.4664 26.94 53.5764 29.05 53.7964 30.21C54.0164 31.37 54.4664 32.1 55.1464 32.4C55.8264 32.7 57.0764 32.85 58.8964 32.85ZM71.0178 13.56H78.4278C79.9678 13.56 81.1178 13.83 81.8778 14.37C82.6578 14.91 83.1478 15.62 83.3478 16.5C83.5678 17.38 83.6778 18.52 83.6778 19.92C83.6778 21.28 83.5678 22.41 83.3478 23.31C83.1278 24.19 82.6378 24.91 81.8778 25.47C81.1178 26.01 79.9678 26.28 78.4278 26.28H72.7578V34.2H71.0178V13.56ZM78.0678 24.72C79.2278 24.72 80.0778 24.54 80.6178 24.18C81.1778 23.82 81.5378 23.32 81.6978 22.68C81.8578 22.02 81.9378 21.1 81.9378 19.92C81.9378 18.72 81.8578 17.8 81.6978 17.16C81.5578 16.52 81.2078 16.03 80.6478 15.69C80.0878 15.33 79.2278 15.15 78.0678 15.15H72.7578V24.72H78.0678ZM101.905 34.2V26.07L95.3652 13.56H97.2552L102.745 24.03H102.955L108.415 13.56H110.275L103.675 26.07V34.2H101.905ZM119.453 34.44C117.133 34.44 115.493 34.19 114.533 33.69C113.573 33.19 112.953 32.26 112.673 30.9C112.393 29.52 112.253 27.18 112.253 23.88C112.253 20.58 112.393 18.25 112.673 16.89C112.953 15.51 113.573 14.57 114.533 14.07C115.493 13.57 117.133 13.32 119.453 13.32C121.793 13.32 123.443 13.57 124.403 14.07C125.363 14.57 125.983 15.51 126.263 16.89C126.543 18.25 126.683 20.58 126.683 23.88C126.683 27.18 126.543 29.52 126.263 30.9C125.983 32.26 125.363 33.19 124.403 33.69C123.443 34.19 121.793 34.44 119.453 34.44ZM119.453 32.85C121.293 32.85 122.553 32.7 123.233 32.4C123.913 32.1 124.363 31.37 124.583 30.21C124.803 29.05 124.913 26.94 124.913 23.88C124.913 20.82 124.803 18.71 124.583 17.55C124.363 16.39 123.913 15.66 123.233 15.36C122.553 15.06 121.293 14.91 119.453 14.91C117.633 14.91 116.383 15.06 115.703 15.36C115.023 15.66 114.573 16.39 114.353 17.55C114.133 18.71 114.023 20.82 114.023 23.88C114.023 26.94 114.133 29.05 114.353 30.21C114.573 31.37 115.023 32.1 115.703 32.4C116.383 32.7 117.633 32.85 119.453 32.85ZM144.804 13.56V25.29C144.804 27.95 144.664 29.89 144.384 31.11C144.104 32.31 143.504 33.17 142.584 33.69C141.664 34.19 140.164 34.44 138.084 34.44C136.004 34.44 134.494 34.19 133.554 33.69C132.634 33.17 132.034 32.31 131.754 31.11C131.474 29.89 131.334 27.95 131.334 25.29V13.56H133.104V26.28C133.104 28.26 133.194 29.68 133.374 30.54C133.574 31.38 134.014 31.98 134.694 32.34C135.374 32.68 136.504 32.85 138.084 32.85C139.664 32.85 140.784 32.68 141.444 32.34C142.124 31.98 142.554 31.38 142.734 30.54C142.934 29.68 143.034 28.26 143.034 26.28V13.56H144.804ZM161.37 34.2L158.34 25.65C158.14 25.67 157.88 25.68 157.56 25.68H151.83V34.2H150.09V13.56H157.86C159.36 13.56 160.48 13.83 161.22 14.37C161.98 14.89 162.46 15.57 162.66 16.41C162.88 17.23 162.99 18.3 162.99 19.62C162.99 21.14 162.8 22.39 162.42 23.37C162.06 24.33 161.27 24.99 160.05 25.35L163.26 34.2H161.37ZM157.29 24.12C158.45 24.12 159.31 23.95 159.87 23.61C160.45 23.27 160.82 22.79 160.98 22.17C161.14 21.55 161.22 20.7 161.22 19.62C161.22 18.52 161.14 17.67 160.98 17.07C160.84 16.47 160.5 16 159.96 15.66C159.44 15.32 158.62 15.15 157.5 15.15H151.83V24.12H157.29ZM189.026 34.2L185.996 25.65C185.796 25.67 185.536 25.68 185.216 25.68H179.486V34.2H177.746V13.56H185.516C187.016 13.56 188.136 13.83 188.876 14.37C189.636 14.89 190.116 15.57 190.316 16.41C190.536 17.23 190.646 18.3 190.646 19.62C190.646 21.14 190.456 22.39 190.076 23.37C189.716 24.33 188.926 24.99 187.706 25.35L190.916 34.2H189.026ZM184.946 24.12C186.106 24.12 186.966 23.95 187.526 23.61C188.106 23.27 188.476 22.79 188.636 22.17C188.796 21.55 188.876 20.7 188.876 19.62C188.876 18.52 188.796 17.67 188.636 17.07C188.496 16.47 188.156 16 187.616 15.66C187.096 15.32 186.276 15.15 185.156 15.15H179.486V24.12H184.946ZM195.442 34.2V13.56H206.752V15.15H197.212V22.98H205.552V24.54H197.212V32.61H206.752V34.2H195.442ZM216.55 34.44C215.57 34.44 214.52 34.4 213.4 34.32C212.28 34.26 211.31 34.17 210.49 34.05V32.49C211.33 32.59 212.28 32.68 213.34 32.76C214.4 32.82 215.3 32.85 216.04 32.85C217 32.85 217.76 32.8 218.32 32.7C218.9 32.6 219.41 32.41 219.85 32.13C220.25 31.85 220.51 31.43 220.63 30.87C220.77 30.29 220.84 29.54 220.84 28.62C220.84 27.42 220.79 26.59 220.69 26.13C220.59 25.65 220.34 25.31 219.94 25.11C219.56 24.91 218.87 24.75 217.87 24.63L213.4 24.06C212.36 23.94 211.59 23.67 211.09 23.25C210.59 22.83 210.27 22.29 210.13 21.63C210.01 20.97 209.95 20.07 209.95 18.93C209.95 17.47 210.17 16.33 210.61 15.51C211.07 14.69 211.76 14.12 212.68 13.8C213.6 13.48 214.82 13.32 216.34 13.32C217.32 13.32 218.3 13.36 219.28 13.44C220.28 13.52 221.08 13.62 221.68 13.74V15.27C220.06 15.03 218.39 14.91 216.67 14.91C215.61 14.91 214.76 14.98 214.12 15.12C213.48 15.24 212.98 15.46 212.62 15.78C212.26 16.08 212.02 16.48 211.9 16.98C211.78 17.46 211.72 18.11 211.72 18.93C211.72 19.89 211.77 20.59 211.87 21.03C211.99 21.47 212.21 21.79 212.53 21.99C212.85 22.19 213.37 22.33 214.09 22.41L218.38 22.95C219.56 23.11 220.44 23.33 221.02 23.61C221.6 23.87 222.02 24.38 222.28 25.14C222.4 25.48 222.48 25.9 222.52 26.4C222.56 26.88 222.58 27.55 222.58 28.41C222.58 30.07 222.36 31.34 221.92 32.22C221.5 33.08 220.86 33.67 220 33.99C219.16 34.29 218.01 34.44 216.55 34.44ZM240.371 13.56V25.29C240.371 27.95 240.231 29.89 239.951 31.11C239.671 32.31 239.071 33.17 238.151 33.69C237.231 34.19 235.731 34.44 233.651 34.44C231.571 34.44 230.061 34.19 229.121 33.69C228.201 33.17 227.601 32.31 227.321 31.11C227.041 29.89 226.901 27.95 226.901 25.29V13.56H228.671V26.28C228.671 28.26 228.761 29.68 228.941 30.54C229.141 31.38 229.581 31.98 230.261 32.34C230.941 32.68 232.071 32.85 233.651 32.85C235.231 32.85 236.351 32.68 237.011 32.34C237.691 31.98 238.121 31.38 238.301 30.54C238.501 29.68 238.601 28.26 238.601 26.28V13.56H240.371ZM262.186 34.2V16.71H262.066L255.526 34.2H253.966L247.456 16.71H247.336V34.2H245.656V13.56H248.116L254.716 31.29H254.866L261.496 13.56H263.926V34.2H262.186ZM269.446 34.2V13.56H280.756V15.15H271.216V22.98H279.556V24.54H271.216V32.61H280.756V34.2H269.446Z" fill="#0F110C"/>
<path d="M86.8742 26.43V24.81H93.2342V26.43H86.8742ZM166.825 26.43V24.81H173.185V26.43H166.825Z" fill="#5AB1BB"/>
</svg>
